<mxfile host="app.diagrams.net" agent="Mozilla/5.0 (Macintosh; Intel Mac OS X 10_15_7) AppleWebKit/605.1.15 (KHTML, like Gecko) Version/18.5 Safari/605.1.15" version="27.2.0">
  <diagram name="Pagina-1" id="0Y0WNs-yQkJqN_bYYXhA">
    <mxGraphModel dx="3376" dy="2186" grid="1" gridSize="10" guides="1" tooltips="1" connect="1" arrows="1" fold="1" page="1" pageScale="1" pageWidth="827" pageHeight="1169" math="0" shadow="0">
      <root>
        <mxCell id="0" />
        <mxCell id="1" parent="0" />
        <mxCell id="vz15OmOkXOloLzdPHNXc-1" value="&lt;p style=&quot;margin:0px;margin-top:4px;text-align:center;&quot;&gt;&lt;i&gt;&amp;lt;&amp;lt;Interface&amp;gt;&amp;gt;&lt;/i&gt;&lt;br&gt;&lt;b&gt;Model&lt;/b&gt;&lt;/p&gt;&lt;hr size=&quot;1&quot; style=&quot;border-style:solid;&quot;&gt;&lt;p style=&quot;margin:0px;margin-left:4px;&quot;&gt;+ getEntities() : Entity&lt;/p&gt;&lt;p style=&quot;margin:0px;margin-left:4px;&quot;&gt;+ update() : void&lt;/p&gt;" style="verticalAlign=top;align=left;overflow=fill;html=1;whiteSpace=wrap;rounded=1;arcSize=4;" vertex="1" parent="1">
          <mxGeometry x="-1300" y="-451" width="190" height="80" as="geometry" />
        </mxCell>
        <mxCell id="vz15OmOkXOloLzdPHNXc-20" style="edgeStyle=orthogonalEdgeStyle;rounded=0;orthogonalLoop=1;jettySize=auto;html=1;exitX=0;exitY=0.5;exitDx=0;exitDy=0;entryX=1;entryY=0.5;entryDx=0;entryDy=0;endSize=10;endArrow=diamond;endFill=1;" edge="1" parent="1" source="vz15OmOkXOloLzdPHNXc-2" target="vz15OmOkXOloLzdPHNXc-1">
          <mxGeometry relative="1" as="geometry" />
        </mxCell>
        <mxCell id="vz15OmOkXOloLzdPHNXc-2" value="&lt;p style=&quot;margin:0px;margin-top:4px;text-align:center;&quot;&gt;&lt;i&gt;&amp;lt;&amp;lt;Interface&amp;gt;&amp;gt;&lt;/i&gt;&lt;br&gt;&lt;b&gt;LeaderBoard&lt;/b&gt;&lt;/p&gt;&lt;hr size=&quot;1&quot; style=&quot;border-style:solid;&quot;&gt;&lt;p style=&quot;margin:0px;margin-left:4px;&quot;&gt;+ getTopScores(): List&amp;lt;Entry&amp;gt;&lt;br&gt;+ getTopScore(): Integer&lt;/p&gt;&lt;p style=&quot;margin:0px;margin-left:4px;&quot;&gt;+ addEntry(Entry): Boolean&lt;/p&gt;&lt;p style=&quot;margin:0px;margin-left:4px;&quot;&gt;+ save(): Boolean&lt;/p&gt;" style="verticalAlign=top;align=left;overflow=fill;html=1;whiteSpace=wrap;rounded=1;arcSize=6;" vertex="1" parent="1">
          <mxGeometry x="-1015" y="-466" width="170" height="110" as="geometry" />
        </mxCell>
        <mxCell id="vz15OmOkXOloLzdPHNXc-22" style="edgeStyle=orthogonalEdgeStyle;rounded=0;orthogonalLoop=1;jettySize=auto;html=1;exitX=0.5;exitY=0;exitDx=0;exitDy=0;entryX=0.5;entryY=1;entryDx=0;entryDy=0;endSize=10;endArrow=diamond;endFill=1;" edge="1" parent="1" source="vz15OmOkXOloLzdPHNXc-3" target="vz15OmOkXOloLzdPHNXc-1">
          <mxGeometry relative="1" as="geometry" />
        </mxCell>
        <mxCell id="vz15OmOkXOloLzdPHNXc-3" value="&lt;p style=&quot;margin:0px;margin-top:4px;text-align:center;&quot;&gt;&lt;i&gt;&amp;lt;&amp;lt;Interface&amp;gt;&amp;gt;&lt;/i&gt;&lt;br&gt;&lt;b&gt;ModelState&lt;/b&gt;&lt;/p&gt;&lt;hr size=&quot;1&quot; style=&quot;border-style:solid;&quot;&gt;&lt;p style=&quot;margin:0px;margin-left:4px;&quot;&gt;+ onEnter() : void&lt;/p&gt;&lt;p style=&quot;margin:0px;margin-left:4px;&quot;&gt;+ onExit() : void&lt;/p&gt;&lt;p style=&quot;margin:0px;margin-left:4px;&quot;&gt;+ update() : void&lt;/p&gt;" style="verticalAlign=top;align=left;overflow=fill;html=1;whiteSpace=wrap;rounded=1;arcSize=6;" vertex="1" parent="1">
          <mxGeometry x="-1300" y="-308" width="190" height="90" as="geometry" />
        </mxCell>
        <mxCell id="vz15OmOkXOloLzdPHNXc-19" style="edgeStyle=orthogonalEdgeStyle;rounded=0;orthogonalLoop=1;jettySize=auto;html=1;exitX=0.5;exitY=1;exitDx=0;exitDy=0;entryX=0.5;entryY=0;entryDx=0;entryDy=0;endSize=10;endArrow=diamond;endFill=1;" edge="1" parent="1" source="vz15OmOkXOloLzdPHNXc-14" target="vz15OmOkXOloLzdPHNXc-15">
          <mxGeometry relative="1" as="geometry" />
        </mxCell>
        <mxCell id="vz15OmOkXOloLzdPHNXc-14" value="&lt;p style=&quot;margin:0px;margin-top:4px;text-align:center;&quot;&gt;&lt;i&gt;&amp;lt;&amp;lt;Interface&amp;gt;&amp;gt;&lt;/i&gt;&lt;br&gt;&lt;b&gt;Entity&lt;/b&gt;&lt;/p&gt;&lt;hr size=&quot;1&quot; style=&quot;border-style:solid;&quot;&gt;&lt;p style=&quot;margin:0px;margin-left:4px;&quot;&gt;+ getPosition() : Position&lt;/p&gt;&lt;p style=&quot;margin:0px;margin-left:4px;&quot;&gt;+ getDimension() : BoundingBox&lt;/p&gt;&lt;p style=&quot;margin:0px;margin-left:4px;&quot;&gt;+ onCollision() : void&lt;/p&gt;&lt;p style=&quot;margin:0px;margin-left:4px;&quot;&gt;+ update() : void&lt;/p&gt;" style="verticalAlign=top;align=left;overflow=fill;html=1;whiteSpace=wrap;rounded=1;arcSize=6;" vertex="1" parent="1">
          <mxGeometry x="-1605" y="-758" width="190" height="110" as="geometry" />
        </mxCell>
        <mxCell id="vz15OmOkXOloLzdPHNXc-18" value="" style="edgeStyle=orthogonalEdgeStyle;rounded=0;orthogonalLoop=1;jettySize=auto;html=1;endSize=10;endArrow=diamond;endFill=1;" edge="1" parent="1" source="vz15OmOkXOloLzdPHNXc-15" target="vz15OmOkXOloLzdPHNXc-16">
          <mxGeometry relative="1" as="geometry" />
        </mxCell>
        <mxCell id="vz15OmOkXOloLzdPHNXc-15" value="&lt;p style=&quot;margin:0px;margin-top:4px;text-align:center;&quot;&gt;&lt;i&gt;&amp;lt;&amp;lt;Interface&amp;gt;&amp;gt;&lt;/i&gt;&lt;br&gt;&lt;b&gt;EntityManager&lt;/b&gt;&lt;/p&gt;&lt;hr size=&quot;1&quot; style=&quot;border-style:solid;&quot;&gt;&lt;p style=&quot;margin:0px;margin-left:4px;&quot;&gt;+ getEntities(): List&amp;lt;Entity&amp;gt;&lt;br&gt;&lt;/p&gt;&lt;p style=&quot;margin:0px;margin-left:4px;&quot;&gt;+ loadEntities(List&amp;lt;String&amp;gt;,Boolean): void&lt;/p&gt;&lt;p style=&quot;margin:0px;margin-left:4px;&quot;&gt;+ transformEntities() : void&lt;/p&gt;" style="verticalAlign=top;align=left;overflow=fill;html=1;whiteSpace=wrap;rounded=1;arcSize=7;" vertex="1" parent="1">
          <mxGeometry x="-1625" y="-612" width="230" height="110" as="geometry" />
        </mxCell>
        <mxCell id="vz15OmOkXOloLzdPHNXc-17" style="edgeStyle=orthogonalEdgeStyle;rounded=0;orthogonalLoop=1;jettySize=auto;html=1;exitX=0.5;exitY=1;exitDx=0;exitDy=0;entryX=0.5;entryY=0;entryDx=0;entryDy=0;endSize=10;endArrow=diamond;endFill=1;" edge="1" parent="1" source="vz15OmOkXOloLzdPHNXc-16" target="vz15OmOkXOloLzdPHNXc-1">
          <mxGeometry relative="1" as="geometry" />
        </mxCell>
        <mxCell id="vz15OmOkXOloLzdPHNXc-16" value="&lt;p style=&quot;margin:0px;margin-top:4px;text-align:center;&quot;&gt;&lt;i&gt;&amp;lt;&amp;lt;Interface&amp;gt;&amp;gt;&lt;/i&gt;&lt;br&gt;&lt;b&gt;LevelManager&lt;/b&gt;&lt;/p&gt;&lt;hr size=&quot;1&quot; style=&quot;border-style:solid;&quot;&gt;&lt;p style=&quot;margin:0px;margin-left:4px;&quot;&gt;+ getEntities(): List&amp;lt;Entity&amp;gt;&lt;br&gt;+ addEntity(Entity): Boolean&lt;/p&gt;&lt;p style=&quot;margin:0px;margin-left:4px;&quot;&gt;+ getMainCharacter(): Optional&amp;lt;MainCharacter&amp;gt;&lt;/p&gt;&lt;p style=&quot;margin:0px;margin-left:4px;&quot;&gt;+ loadEntities(List&amp;lt;String&amp;gt;,Boolean): void&lt;/p&gt;" style="verticalAlign=top;align=left;overflow=fill;html=1;whiteSpace=wrap;rounded=1;arcSize=7;" vertex="1" parent="1">
          <mxGeometry x="-1337.5" y="-612" width="265" height="110" as="geometry" />
        </mxCell>
        <mxCell id="vz15OmOkXOloLzdPHNXc-24" style="edgeStyle=orthogonalEdgeStyle;rounded=0;orthogonalLoop=1;jettySize=auto;html=1;exitX=0.5;exitY=1;exitDx=0;exitDy=0;entryX=0.5;entryY=0;entryDx=0;entryDy=0;endSize=10;endArrow=diamond;endFill=1;" edge="1" parent="1" source="vz15OmOkXOloLzdPHNXc-23" target="vz15OmOkXOloLzdPHNXc-16">
          <mxGeometry relative="1" as="geometry" />
        </mxCell>
        <mxCell id="vz15OmOkXOloLzdPHNXc-23" value="&lt;p style=&quot;margin:0px;margin-top:4px;text-align:center;&quot;&gt;&lt;i&gt;&amp;lt;&amp;lt;Interface&amp;gt;&amp;gt;&lt;/i&gt;&lt;br&gt;&lt;b&gt;Bonus&lt;/b&gt;&lt;/p&gt;&lt;hr size=&quot;1&quot; style=&quot;border-style:solid;&quot;&gt;&lt;p style=&quot;margin:0px;margin-left:4px;&quot;&gt;+ getBonus() : int&lt;/p&gt;&lt;p style=&quot;margin:0px;margin-left:4px;&quot;&gt;+ setBonus(value : int): int&lt;/p&gt;&lt;p style=&quot;margin:0px;margin-left:4px;&quot;&gt;+ calculateBonus() : void&lt;/p&gt;&lt;p style=&quot;margin:0px;margin-left:4px;&quot;&gt;+ resetBonus() : void&lt;/p&gt;" style="verticalAlign=top;align=left;overflow=fill;html=1;whiteSpace=wrap;rounded=1;arcSize=6;" vertex="1" parent="1">
          <mxGeometry x="-1270" y="-758" width="150" height="110" as="geometry" />
        </mxCell>
        <mxCell id="vz15OmOkXOloLzdPHNXc-26" style="edgeStyle=orthogonalEdgeStyle;rounded=0;orthogonalLoop=1;jettySize=auto;html=1;exitX=1;exitY=0.5;exitDx=0;exitDy=0;entryX=0;entryY=0.5;entryDx=0;entryDy=0;endSize=10;endArrow=diamond;endFill=1;" edge="1" parent="1" source="vz15OmOkXOloLzdPHNXc-25" target="vz15OmOkXOloLzdPHNXc-1">
          <mxGeometry relative="1" as="geometry" />
        </mxCell>
        <mxCell id="vz15OmOkXOloLzdPHNXc-25" value="&lt;p style=&quot;margin:0px;margin-top:4px;text-align:center;&quot;&gt;&lt;i&gt;&amp;lt;&amp;lt;Interface&amp;gt;&amp;gt;&lt;/i&gt;&lt;br&gt;&lt;b&gt;PhysicsEngine&lt;/b&gt;&lt;/p&gt;&lt;hr size=&quot;1&quot; style=&quot;border-style:solid;&quot;&gt;&lt;p style=&quot;margin:0px;margin-left:4px;&quot;&gt;+ updateEntity() : void&lt;/p&gt;&lt;p style=&quot;margin:0px;margin-left:4px;&quot;&gt;+ applyGravity() : void&lt;/p&gt;&lt;p style=&quot;margin:0px;margin-left:4px;&quot;&gt;+ handleCollision() : void&lt;/p&gt;&lt;p style=&quot;margin:0px;margin-left:4px;&quot;&gt;&lt;br&gt;&lt;/p&gt;" style="verticalAlign=top;align=left;overflow=fill;html=1;whiteSpace=wrap;rounded=1;arcSize=6;" vertex="1" parent="1">
          <mxGeometry x="-1585" y="-460" width="150" height="98" as="geometry" />
        </mxCell>
        <mxCell id="vz15OmOkXOloLzdPHNXc-28" style="edgeStyle=orthogonalEdgeStyle;rounded=0;orthogonalLoop=1;jettySize=auto;html=1;exitX=0.5;exitY=0;exitDx=0;exitDy=0;entryX=0.5;entryY=1;entryDx=0;entryDy=0;endSize=10;endArrow=diamond;endFill=1;" edge="1" parent="1" source="vz15OmOkXOloLzdPHNXc-27" target="vz15OmOkXOloLzdPHNXc-2">
          <mxGeometry relative="1" as="geometry" />
        </mxCell>
        <mxCell id="vz15OmOkXOloLzdPHNXc-27" value="&lt;p style=&quot;margin:0px;margin-top:4px;text-align:center;&quot;&gt;&lt;i&gt;&amp;lt;&amp;lt;Interface&amp;gt;&amp;gt;&lt;/i&gt;&lt;br&gt;&lt;b&gt;Entry&lt;/b&gt;&lt;/p&gt;&lt;hr size=&quot;1&quot; style=&quot;border-style:solid;&quot;&gt;&lt;p style=&quot;margin:0px;margin-left:4px;&quot;&gt;+ name() : String&lt;/p&gt;&lt;p style=&quot;margin:0px;margin-left:4px;&quot;&gt;+ score() : int&lt;/p&gt;" style="verticalAlign=top;align=left;overflow=fill;html=1;whiteSpace=wrap;rounded=1;arcSize=6;" vertex="1" parent="1">
          <mxGeometry x="-980" y="-303" width="100" height="80" as="geometry" />
        </mxCell>
        <mxCell id="vz15OmOkXOloLzdPHNXc-30" style="edgeStyle=orthogonalEdgeStyle;rounded=0;orthogonalLoop=1;jettySize=auto;html=1;exitX=0;exitY=0.5;exitDx=0;exitDy=0;entryX=1;entryY=0.5;entryDx=0;entryDy=0;endSize=10;endArrow=diamond;endFill=1;" edge="1" parent="1" source="vz15OmOkXOloLzdPHNXc-29" target="vz15OmOkXOloLzdPHNXc-16">
          <mxGeometry relative="1" as="geometry" />
        </mxCell>
        <mxCell id="vz15OmOkXOloLzdPHNXc-29" value="&lt;p style=&quot;margin:0px;margin-top:4px;text-align:center;&quot;&gt;&lt;i&gt;&amp;lt;&amp;lt;Interface&amp;gt;&amp;gt;&lt;/i&gt;&lt;br&gt;&lt;b&gt;MapsManager&lt;/b&gt;&lt;/p&gt;&lt;hr size=&quot;1&quot; style=&quot;border-style:solid;&quot;&gt;&lt;p style=&quot;margin:0px;margin-left:4px;&quot;&gt;+ currentMap() : List&amp;lt;String&amp;gt;&lt;/p&gt;&lt;p style=&quot;margin:0px;margin-left:4px;&quot;&gt;+ shouldAdvance() : boolean&lt;/p&gt;&lt;p style=&quot;margin:0px;margin-left:4px;&quot;&gt;+ canDonkeyThrow() : boolean&lt;/p&gt;" style="verticalAlign=top;align=left;overflow=fill;html=1;whiteSpace=wrap;rounded=1;arcSize=7;" vertex="1" parent="1">
          <mxGeometry x="-1015" y="-604" width="170" height="94" as="geometry" />
        </mxCell>
        <mxCell id="vz15OmOkXOloLzdPHNXc-40" style="edgeStyle=orthogonalEdgeStyle;rounded=0;orthogonalLoop=1;jettySize=auto;html=1;exitX=0.5;exitY=1;exitDx=0;exitDy=0;entryX=0;entryY=0.5;entryDx=0;entryDy=0;endSize=10;endArrow=block;endFill=0;" edge="1" parent="1" source="vz15OmOkXOloLzdPHNXc-32" target="vz15OmOkXOloLzdPHNXc-3">
          <mxGeometry relative="1" as="geometry" />
        </mxCell>
        <mxCell id="vz15OmOkXOloLzdPHNXc-32" value="&lt;p style=&quot;margin: 4px 0px 0px;&quot;&gt;&lt;b&gt;&lt;br&gt;&lt;/b&gt;&lt;/p&gt;&lt;p style=&quot;margin: 4px 0px 0px;&quot;&gt;&lt;b&gt;MenuState&lt;/b&gt;&lt;/p&gt;" style="verticalAlign=middle;align=center;overflow=fill;html=1;whiteSpace=wrap;rounded=1;arcSize=6;labelBorderColor=none;dashed=1;" vertex="1" parent="1">
          <mxGeometry x="-1565" y="-349" width="100" height="60" as="geometry" />
        </mxCell>
        <mxCell id="vz15OmOkXOloLzdPHNXc-36" style="edgeStyle=orthogonalEdgeStyle;rounded=0;orthogonalLoop=1;jettySize=auto;html=1;exitX=0.5;exitY=1;exitDx=0;exitDy=0;entryX=0;entryY=0.5;entryDx=0;entryDy=0;endSize=10;endArrow=block;endFill=0;" edge="1" parent="1" source="vz15OmOkXOloLzdPHNXc-33" target="vz15OmOkXOloLzdPHNXc-3">
          <mxGeometry relative="1" as="geometry" />
        </mxCell>
        <mxCell id="vz15OmOkXOloLzdPHNXc-33" value="&lt;p style=&quot;margin: 4px 0px 0px;&quot;&gt;&lt;b&gt;&lt;br&gt;&lt;/b&gt;&lt;/p&gt;&lt;p style=&quot;margin: 4px 0px 0px;&quot;&gt;&lt;b&gt;InGameState&lt;/b&gt;&lt;/p&gt;" style="verticalAlign=middle;align=center;overflow=fill;html=1;whiteSpace=wrap;rounded=1;arcSize=6;labelBorderColor=none;dashed=1;" vertex="1" parent="1">
          <mxGeometry x="-1455" y="-349" width="100" height="60" as="geometry" />
        </mxCell>
        <mxCell id="vz15OmOkXOloLzdPHNXc-42" style="edgeStyle=orthogonalEdgeStyle;rounded=0;orthogonalLoop=1;jettySize=auto;html=1;exitX=0.5;exitY=0;exitDx=0;exitDy=0;entryX=0;entryY=0.5;entryDx=0;entryDy=0;endSize=10;endArrow=block;endFill=0;" edge="1" parent="1" source="vz15OmOkXOloLzdPHNXc-34" target="vz15OmOkXOloLzdPHNXc-3">
          <mxGeometry relative="1" as="geometry" />
        </mxCell>
        <mxCell id="vz15OmOkXOloLzdPHNXc-34" value="&lt;p style=&quot;margin: 4px 0px 0px;&quot;&gt;&lt;b&gt;&lt;br&gt;&lt;/b&gt;&lt;/p&gt;&lt;p style=&quot;margin: 4px 0px 0px;&quot;&gt;&lt;b&gt;PauseState&lt;/b&gt;&lt;/p&gt;" style="verticalAlign=middle;align=center;overflow=fill;html=1;whiteSpace=wrap;rounded=1;arcSize=6;labelBorderColor=none;dashed=1;" vertex="1" parent="1">
          <mxGeometry x="-1565" y="-239" width="100" height="60" as="geometry" />
        </mxCell>
        <mxCell id="vz15OmOkXOloLzdPHNXc-43" style="edgeStyle=orthogonalEdgeStyle;rounded=0;orthogonalLoop=1;jettySize=auto;html=1;exitX=0.5;exitY=0;exitDx=0;exitDy=0;entryX=0;entryY=0.5;entryDx=0;entryDy=0;endSize=10;endArrow=block;endFill=0;" edge="1" parent="1" source="vz15OmOkXOloLzdPHNXc-35" target="vz15OmOkXOloLzdPHNXc-3">
          <mxGeometry relative="1" as="geometry" />
        </mxCell>
        <mxCell id="vz15OmOkXOloLzdPHNXc-35" value="&lt;p style=&quot;margin: 4px 0px 0px;&quot;&gt;&lt;b&gt;&lt;br&gt;&lt;/b&gt;&lt;/p&gt;&lt;p style=&quot;margin: 4px 0px 0px;&quot;&gt;&lt;b&gt;GameOverState&lt;/b&gt;&lt;/p&gt;" style="verticalAlign=middle;align=center;overflow=fill;html=1;whiteSpace=wrap;rounded=1;arcSize=6;labelBorderColor=none;dashed=1;" vertex="1" parent="1">
          <mxGeometry x="-1455" y="-239" width="100" height="60" as="geometry" />
        </mxCell>
        <mxCell id="vz15OmOkXOloLzdPHNXc-53" style="edgeStyle=orthogonalEdgeStyle;rounded=0;orthogonalLoop=1;jettySize=auto;html=1;exitX=0.5;exitY=1;exitDx=0;exitDy=0;entryX=0.5;entryY=0;entryDx=0;entryDy=0;endArrow=block;endFill=0;endSize=10;" edge="1" parent="1" source="vz15OmOkXOloLzdPHNXc-44" target="vz15OmOkXOloLzdPHNXc-14">
          <mxGeometry relative="1" as="geometry" />
        </mxCell>
        <mxCell id="vz15OmOkXOloLzdPHNXc-44" value="&lt;p style=&quot;margin: 4px 0px 0px;&quot;&gt;&lt;b&gt;&lt;br&gt;&lt;/b&gt;&lt;/p&gt;&lt;p style=&quot;margin: 4px 0px 0px;&quot;&gt;&lt;b&gt;Mario&lt;/b&gt;&lt;/p&gt;" style="verticalAlign=middle;align=center;overflow=fill;html=1;whiteSpace=wrap;rounded=1;arcSize=6;labelBorderColor=none;dashed=1;" vertex="1" parent="1">
          <mxGeometry x="-1525" y="-859" width="100" height="60" as="geometry" />
        </mxCell>
        <mxCell id="vz15OmOkXOloLzdPHNXc-56" style="edgeStyle=orthogonalEdgeStyle;rounded=0;orthogonalLoop=1;jettySize=auto;html=1;exitX=0.5;exitY=1;exitDx=0;exitDy=0;entryX=0.5;entryY=0;entryDx=0;entryDy=0;endArrow=block;endFill=0;endSize=10;" edge="1" parent="1" source="vz15OmOkXOloLzdPHNXc-45" target="vz15OmOkXOloLzdPHNXc-14">
          <mxGeometry relative="1" as="geometry" />
        </mxCell>
        <mxCell id="vz15OmOkXOloLzdPHNXc-45" value="&lt;p style=&quot;margin: 4px 0px 0px;&quot;&gt;&lt;b&gt;&lt;br&gt;&lt;/b&gt;&lt;/p&gt;&lt;p style=&quot;margin: 4px 0px 0px;&quot;&gt;&lt;b&gt;Pauline&lt;/b&gt;&lt;/p&gt;" style="verticalAlign=middle;align=center;overflow=fill;html=1;whiteSpace=wrap;rounded=1;arcSize=6;labelBorderColor=none;dashed=1;" vertex="1" parent="1">
          <mxGeometry x="-1635" y="-859" width="100" height="60" as="geometry" />
        </mxCell>
        <mxCell id="vz15OmOkXOloLzdPHNXc-59" style="edgeStyle=orthogonalEdgeStyle;rounded=0;orthogonalLoop=1;jettySize=auto;html=1;exitX=0.5;exitY=1;exitDx=0;exitDy=0;endArrow=block;endFill=0;endSize=10;" edge="1" parent="1" source="vz15OmOkXOloLzdPHNXc-46" target="vz15OmOkXOloLzdPHNXc-14">
          <mxGeometry relative="1" as="geometry" />
        </mxCell>
        <mxCell id="vz15OmOkXOloLzdPHNXc-46" value="&lt;p style=&quot;margin: 4px 0px 0px;&quot;&gt;&lt;b&gt;&lt;br&gt;&lt;/b&gt;&lt;/p&gt;&lt;p style=&quot;margin: 4px 0px 0px;&quot;&gt;&lt;b&gt;DonkeyKong&lt;/b&gt;&lt;/p&gt;" style="verticalAlign=middle;align=center;overflow=fill;html=1;whiteSpace=wrap;rounded=1;arcSize=6;labelBorderColor=none;dashed=1;" vertex="1" parent="1">
          <mxGeometry x="-1415" y="-859" width="100" height="60" as="geometry" />
        </mxCell>
        <mxCell id="vz15OmOkXOloLzdPHNXc-60" style="edgeStyle=orthogonalEdgeStyle;rounded=0;orthogonalLoop=1;jettySize=auto;html=1;exitX=0.5;exitY=1;exitDx=0;exitDy=0;endArrow=block;endFill=0;endSize=10;" edge="1" parent="1" source="vz15OmOkXOloLzdPHNXc-47" target="vz15OmOkXOloLzdPHNXc-14">
          <mxGeometry relative="1" as="geometry" />
        </mxCell>
        <mxCell id="vz15OmOkXOloLzdPHNXc-47" value="&lt;p style=&quot;margin: 4px 0px 0px;&quot;&gt;&lt;b&gt;&lt;br&gt;&lt;/b&gt;&lt;/p&gt;&lt;p style=&quot;margin: 4px 0px 0px;&quot;&gt;&lt;b&gt;Barrel&lt;/b&gt;&lt;/p&gt;" style="verticalAlign=middle;align=center;overflow=fill;html=1;whiteSpace=wrap;rounded=1;arcSize=6;labelBorderColor=none;dashed=1;" vertex="1" parent="1">
          <mxGeometry x="-1305" y="-859" width="100" height="60" as="geometry" />
        </mxCell>
        <mxCell id="vz15OmOkXOloLzdPHNXc-61" style="edgeStyle=orthogonalEdgeStyle;rounded=0;orthogonalLoop=1;jettySize=auto;html=1;exitX=0.5;exitY=1;exitDx=0;exitDy=0;entryX=0.5;entryY=0;entryDx=0;entryDy=0;endArrow=block;endFill=0;endSize=10;" edge="1" parent="1" source="vz15OmOkXOloLzdPHNXc-48" target="vz15OmOkXOloLzdPHNXc-14">
          <mxGeometry relative="1" as="geometry" />
        </mxCell>
        <mxCell id="vz15OmOkXOloLzdPHNXc-48" value="&lt;p style=&quot;margin: 4px 0px 0px;&quot;&gt;&lt;b&gt;&lt;br&gt;&lt;/b&gt;&lt;/p&gt;&lt;p style=&quot;margin: 4px 0px 0px;&quot;&gt;&lt;b&gt;Fire&lt;/b&gt;&lt;/p&gt;" style="verticalAlign=middle;align=center;overflow=fill;html=1;whiteSpace=wrap;rounded=1;arcSize=6;labelBorderColor=none;dashed=1;" vertex="1" parent="1">
          <mxGeometry x="-1195" y="-859" width="100" height="60" as="geometry" />
        </mxCell>
        <mxCell id="vz15OmOkXOloLzdPHNXc-63" style="edgeStyle=orthogonalEdgeStyle;rounded=0;orthogonalLoop=1;jettySize=auto;html=1;exitX=0.5;exitY=1;exitDx=0;exitDy=0;entryX=0.5;entryY=0;entryDx=0;entryDy=0;endSize=10;endArrow=diamond;endFill=1;" edge="1" parent="1" source="vz15OmOkXOloLzdPHNXc-52" target="vz15OmOkXOloLzdPHNXc-44">
          <mxGeometry relative="1" as="geometry" />
        </mxCell>
        <mxCell id="vz15OmOkXOloLzdPHNXc-52" value="&lt;p style=&quot;margin:0px;margin-top:4px;text-align:center;&quot;&gt;&lt;i&gt;&amp;lt;&amp;lt;Interface&amp;gt;&amp;gt;&lt;/i&gt;&lt;br&gt;&lt;b&gt;Score&lt;/b&gt;&lt;/p&gt;&lt;hr size=&quot;1&quot; style=&quot;border-style:solid;&quot;&gt;&lt;p style=&quot;margin:0px;margin-left:4px;&quot;&gt;+ getScore() : int&lt;/p&gt;&lt;p style=&quot;margin:0px;margin-left:4px;&quot;&gt;+ increase(value : int) : void&lt;/p&gt;&lt;p style=&quot;margin:0px;margin-left:4px;&quot;&gt;+ reset() : void&lt;/p&gt;" style="verticalAlign=top;align=left;overflow=fill;html=1;whiteSpace=wrap;rounded=1;arcSize=6;" vertex="1" parent="1">
          <mxGeometry x="-1552.5" y="-989" width="155" height="90" as="geometry" />
        </mxCell>
        <mxCell id="vz15OmOkXOloLzdPHNXc-68" style="edgeStyle=orthogonalEdgeStyle;rounded=0;orthogonalLoop=1;jettySize=auto;html=1;exitX=0;exitY=0.5;exitDx=0;exitDy=0;entryX=1;entryY=0.5;entryDx=0;entryDy=0;endSize=10;endArrow=block;endFill=0;" edge="1" parent="1" source="vz15OmOkXOloLzdPHNXc-66" target="vz15OmOkXOloLzdPHNXc-14">
          <mxGeometry relative="1" as="geometry" />
        </mxCell>
        <mxCell id="vz15OmOkXOloLzdPHNXc-66" value="&lt;p style=&quot;margin: 4px 0px 0px;&quot;&gt;&lt;b&gt;&lt;br&gt;&lt;/b&gt;&lt;/p&gt;&lt;p style=&quot;margin: 4px 0px 0px;&quot;&gt;&lt;b&gt;Coin&lt;/b&gt;&lt;/p&gt;" style="verticalAlign=middle;align=center;overflow=fill;html=1;whiteSpace=wrap;rounded=1;arcSize=6;labelBorderColor=none;dashed=1;" vertex="1" parent="1">
          <mxGeometry x="-1380" y="-770" width="100" height="60" as="geometry" />
        </mxCell>
        <mxCell id="vz15OmOkXOloLzdPHNXc-70" style="edgeStyle=orthogonalEdgeStyle;rounded=0;orthogonalLoop=1;jettySize=auto;html=1;exitX=0;exitY=0.5;exitDx=0;exitDy=0;entryX=1;entryY=0.5;entryDx=0;entryDy=0;endSize=10;endArrow=block;endFill=0;" edge="1" parent="1" source="vz15OmOkXOloLzdPHNXc-67" target="vz15OmOkXOloLzdPHNXc-14">
          <mxGeometry relative="1" as="geometry" />
        </mxCell>
        <mxCell id="vz15OmOkXOloLzdPHNXc-67" value="&lt;p style=&quot;margin: 4px 0px 0px;&quot;&gt;&lt;b&gt;&lt;br&gt;&lt;/b&gt;&lt;/p&gt;&lt;p style=&quot;margin: 4px 0px 0px;&quot;&gt;&lt;b&gt;Hammer&lt;/b&gt;&lt;/p&gt;" style="verticalAlign=middle;align=center;overflow=fill;html=1;whiteSpace=wrap;rounded=1;arcSize=6;labelBorderColor=none;dashed=1;" vertex="1" parent="1">
          <mxGeometry x="-1380" y="-690" width="100" height="60" as="geometry" />
        </mxCell>
      </root>
    </mxGraphModel>
  </diagram>
</mxfile>
